<?xml version="1.0" encoding="UTF-8" standalone="no"?>
<!-- Created with Inkscape (http://www.inkscape.org/) -->

<svg
   version="1.1"
   id="svg2"
   width="955.40918"
   height="280.88934"
   viewBox="0 0 955.40918 280.88935"
   sodipodi:docname="Chelan Logo Final F.ai"
   xmlns:inkscape="http://www.inkscape.org/namespaces/inkscape"
   xmlns:sodipodi="http://sodipodi.sourceforge.net/DTD/sodipodi-0.dtd"
   xmlns="http://www.w3.org/2000/svg"
   xmlns:svg="http://www.w3.org/2000/svg">
  <defs
     id="defs6">
    <clipPath
       clipPathUnits="userSpaceOnUse"
       id="clipPath334">
      <path
         d="M 0,210.667 H 716.557 V 0 H 0 Z"
         id="path332" />
    </clipPath>
  </defs>
  <sodipodi:namedview
     id="namedview4"
     pagecolor="#ffffff"
     bordercolor="#000000"
     borderopacity="0.25"
     inkscape:showpageshadow="2"
     inkscape:pageopacity="0.0"
     inkscape:pagecheckerboard="0"
     inkscape:deskcolor="#d1d1d1"
     showgrid="false" />
  <g
     id="g326"
     inkscape:groupmode="layer"
     inkscape:label="Page 4"
     transform="matrix(1.3333333,0,0,-1.3333333,7.5e-5,280.88933)">
    <g
       id="g328">
      <g
         id="g330"
         clip-path="url(#clipPath334)">
        <g
           id="g336"
           transform="translate(109.8079,135.3524)">
          <path
             d="m 0,0 c -8.041,0 -14.559,-6.518 -14.559,-14.559 0,-5.273 2.812,-9.877 7.01,-12.432 V -44.756 H 7.549 v 17.765 c 4.197,2.555 7.01,7.159 7.01,12.432 C 14.559,-6.518 8.041,0 0,0"
             style="fill:#00a8e9;fill-opacity:1;fill-rule:nonzero;stroke:none"
             id="path338" />
        </g>
        <g
           id="g340"
           transform="translate(101.3121,58.9254)">
          <path
             d="M 0,0 C 1.017,4.622 5.611,7.571 10.234,6.564 14.875,5.547 17.805,0.971 16.816,-3.67 15.799,-8.283 11.205,-11.232 6.582,-10.225 1.941,-9.217 -1.008,-4.641 0,0 m 16.853,104.816 c -1.008,-4.613 -5.611,-7.562 -10.225,-6.555 -4.64,1.008 -7.571,5.584 -6.582,10.225 1.008,4.622 5.612,7.571 10.225,6.564 4.641,-1.017 7.59,-5.593 6.582,-10.234 M 83.96,58.972 c -4.253,3.799 -8.949,7.774 -14.107,11.897 -11.713,9.384 -25.923,19.553 -43.062,30.175 0.148,0.499 0.287,1.008 0.397,1.525 2.247,10.336 -4.317,20.561 -14.643,22.825 -10.335,2.256 -20.579,-4.326 -22.834,-14.662 -2.247,-10.326 4.335,-20.56 14.662,-22.806 6.083,-1.331 12.12,0.397 16.52,4.169 0.296,-0.185 0.582,-0.36 0.924,-0.573 C 75.214,58.398 73.68,39.872 71.831,34.797 64.213,21.521 56.124,10.252 48.71,1.193 32.486,-18.646 16.816,-31.663 9.18,-37.478 c -7.645,5.843 -23.306,18.832 -39.53,38.671 -7.257,8.884 -15.18,19.839 -22.64,32.744 v 0.009 C -41.277,24.563 -27.068,14.394 -9.938,3.781 -10.077,3.282 -10.225,2.764 -10.326,2.246 -12.573,-8.08 -6.018,-18.314 4.317,-20.579 14.644,-22.825 24.896,-16.243 27.142,-5.917 29.389,4.419 22.816,14.644 12.48,16.89 6.36,18.23 0.268,16.483 -4.142,12.647 c -9.272,5.741 -17.657,11.352 -25.247,16.779 -20.218,16.455 -46.251,45.465 -52.842,89.081 7.775,3.116 25.672,9.448 50.845,13.035 30.212,4.308 77.212,5.381 131.986,-12.97 C 97.587,96.32 91.485,76.379 83.96,58.972 m 29.176,73.911 c -14.681,5.278 -28.862,9.217 -42.433,12.11 0,0 -14.107,2.727 -21.253,3.772 l -0.666,0.092 -0.73,0.102 c -12.388,1.701 -24.101,2.542 -35.01,2.783 L -9.43,151.381 c -9.3,-0.499 -17.759,-1.405 -25.256,-2.496 -33.835,-4.909 -55.2,-14.329 -58.999,-16.104 l -7.627,-2.533 0.739,-7.054 c 1.156,-10.973 3.033,-21.429 5.446,-31.367 1.396,-5.778 2.986,-11.352 4.705,-16.77 1.979,-5.879 5.649,-16.252 7.895,-21.401 5.223,-12.351 11.14,-23.528 17.232,-33.549 0.989,-1.618 9.994,-15.318 12.48,-18.665 3.134,-4.289 6.24,-8.292 9.245,-11.944 24.295,-29.546 46.953,-44.605 47.906,-45.243 l 4.844,-3.18 4.844,3.18 c 0.86,0.582 19.617,13.035 41.231,37.422 2.08,2.32 11.649,13.997 14.403,17.713 5.686,7.645 11.528,16.326 17.122,26.051 0.831,1.424 1.645,2.866 2.459,4.336 1.266,2.256 8.597,17.158 9.91,19.941 l 0.055,0.12 c 9.337,21.05 16.752,45.567 19.71,73.356 l 0.055,0.453 v 7.156 z"
             style="fill:#0088b8;fill-opacity:1;fill-rule:nonzero;stroke:none"
             id="path342" />
        </g>
        <g
           id="g344"
           transform="translate(296.2702,88.3248)">
          <path
             d="m 0,0 c -18.483,0 -27.732,14.898 -27.732,40.054 0,24.829 9.249,40.068 28.927,40.068 11.298,0 21.4,-7.712 24.659,-20.546 h 23.791 c -2.22,22.937 -20.191,41.093 -48.621,41.093 -32.527,0 -52.888,-23.463 -52.888,-61.981 0,-39.03 22.766,-59.405 52.547,-59.405 26.366,0 44.166,17.117 48.962,42.971 H 25.854 C 22.595,8.039 14.044,0 0,0"
             style="fill:#000b5d;fill-opacity:1;fill-rule:nonzero;stroke:none"
             id="path346" />
        </g>
        <g
           id="g348"
           transform="translate(398.3051,158.0033)">
          <path
             d="m 0,0 c -11.298,0 -21.571,-5.649 -24.829,-13.19 v 41.776 h -22.254 v -115.04 h 22.254 v 48.278 c 0,11.298 6.161,20.546 17.302,20.546 10.088,0 14.371,-3.941 14.371,-16.619 v -52.205 h 22.425 v 59.576 C 29.269,-10.102 17.288,0 0,0"
             style="fill:#000b5d;fill-opacity:1;fill-rule:nonzero;stroke:none"
             id="path350" />
        </g>
        <g
           id="g352"
           transform="translate(475.5104,140.3737)">
          <path
             d="M 0,0 C 8.737,0 16.947,-6.005 17.288,-18.497 H -17.117 C -16.263,-6.858 -8.907,0 0,0 m 1.025,-53.415 c -10.957,0 -18.142,8.21 -18.825,20.888 h 58.039 c 0,33.381 -13.702,50.157 -39.556,50.157 -25.854,0 -40.737,-16.776 -40.737,-42.801 0,-30.478 14.03,-45.888 42.103,-45.888 17.985,0 31.844,9.761 36.981,27.049 H 16.093 c -1.537,-5.819 -7.869,-9.405 -15.068,-9.405"
             style="fill:#000b5d;fill-opacity:1;fill-rule:nonzero;stroke:none"
             id="path354" />
        </g>
        <path
           d="m 523.447,71.549 h 22.254 v 115.04 h -22.254 z"
           style="fill:#000b5d;fill-opacity:1;fill-rule:nonzero;stroke:none"
           id="path356" />
        <g
           id="g358"
           transform="translate(606.131,103.5638)">
          <path
             d="m 0,0 c -0.171,-9.932 -8.722,-18.327 -20.191,-18.327 -7.029,0 -10.785,3.088 -10.785,9.42 0,7.185 4.098,10.785 16.776,13.19 8.21,1.537 12.151,2.732 14.371,4.952 z m -13.517,54.439 c -27.049,0 -36.64,-12.165 -36.981,-29.624 h 20.717 c 1.025,7.541 5.137,12.507 15.239,12.507 8.723,0 14.201,-3.258 14.201,-8.736 0,-5.82 -3.074,-8.04 -14.201,-9.59 -22.439,-3.074 -38.702,-5.82 -38.702,-30.123 0,-13.702 8.907,-23.122 28.088,-23.122 11.297,0 20.19,3.942 25.497,9.761 0.171,-2.561 0.683,-5.478 1.381,-7.527 H 22.425 V 21.23 c 0,21.229 -9.235,33.209 -35.942,33.209"
             style="fill:#000b5d;fill-opacity:1;fill-rule:nonzero;stroke:none"
             id="path360" />
        </g>
        <g
           id="g362"
           transform="translate(686.7657,158.0033)">
          <path
             d="m 0,0 c -13.517,0 -22.083,-5.137 -27.22,-14.556 v 12.322 h -21.229 v -84.22 h 22.254 v 48.278 c 0,12.834 5.648,19.337 17.288,19.337 10.615,0 14.385,-3.586 14.385,-16.605 v -51.01 h 22.425 v 58.38 C 27.903,-9.761 16.093,0 0,0"
             style="fill:#000b5d;fill-opacity:1;fill-rule:nonzero;stroke:none"
             id="path364" />
        </g>
        <g
           id="g366"
           transform="translate(254.8732,22.8773)">
          <path
             d="m 0,0 v 28.677 h -10.467 v 6.07 h 28.258 v -6.07 H 7.273 V 0 Z"
             style="fill:#000b5d;fill-opacity:1;fill-rule:nonzero;stroke:none"
             id="path368" />
        </g>
        <g
           id="g370"
           transform="translate(285.8981,22.8773)">
          <path
             d="m 0,0 v 34.747 h 25.537 v -6.07 H 7.064 v -7.43 H 24.071 V 15.124 H 7.064 V 6.175 H 26.373 V 0 Z"
             style="fill:#000b5d;fill-opacity:1;fill-rule:nonzero;stroke:none"
             id="path372" />
        </g>
        <g
           id="g374"
           transform="translate(355.8548,34.809)">
          <path
             d="m 0,0 c -1.465,-7.902 -6.907,-13.136 -14.965,-13.136 -9.106,0 -16.066,6.227 -16.066,18.159 0,11.774 6.228,18.944 16.17,18.944 8.686,0 14.182,-5.548 14.861,-12.56 h -7.273 c -0.994,3.926 -4.082,6.28 -7.536,6.28 -6.018,0 -8.844,-4.657 -8.844,-12.245 0,-7.693 2.826,-12.246 8.477,-12.246 4.293,0 6.909,2.46 7.903,6.804 z"
             style="fill:#000b5d;fill-opacity:1;fill-rule:nonzero;stroke:none"
             id="path376" />
        </g>
        <g
           id="g378"
           transform="translate(389.6535,22.8773)">
          <path
             d="M 0,0 V 15.593 H -13.554 V 0 h -7.273 v 34.747 h 7.273 V 21.665 H 0 V 34.747 H 7.327 V 0 Z"
             style="fill:#000b5d;fill-opacity:1;fill-rule:nonzero;stroke:none"
             id="path380" />
        </g>
        <g
           id="g382"
           transform="translate(432.6602,22.8773)">
          <path
             d="M 0,0 -14.861,23.338 V 0 h -6.75 v 34.747 h 7.691 L -0.104,12.402 V 34.747 H 6.698 V 0 Z"
             style="fill:#000b5d;fill-opacity:1;fill-rule:nonzero;stroke:none"
             id="path384" />
        </g>
        <g
           id="g386"
           transform="translate(479.1765,39.78)">
          <path
             d="m 0,0 c 0,8.215 -3.349,12.559 -9.42,12.559 -6.123,0 -9.524,-4.344 -9.524,-12.559 0,-8.216 3.506,-11.88 9.524,-11.88 C -4.187,-11.88 0,-8.216 0,0 m -26.114,0.157 c 0,11.775 6.019,18.839 16.694,18.839 10.676,0 16.588,-7.064 16.588,-18.996 0,-11.932 -5.912,-18.107 -16.588,-18.107 -10.675,0 -16.694,6.541 -16.694,18.264"
             style="fill:#000b5d;fill-opacity:1;fill-rule:nonzero;stroke:none"
             id="path388" />
        </g>
        <g
           id="g390"
           transform="translate(500.0487,22.8773)">
          <path
             d="M 0,0 V 34.747 H 7.273 V 6.332 H 24.49 V 0 Z"
             style="fill:#000b5d;fill-opacity:1;fill-rule:nonzero;stroke:none"
             id="path392" />
        </g>
        <g
           id="g394"
           transform="translate(561.4245,39.78)">
          <path
             d="m 0,0 c 0,8.215 -3.349,12.559 -9.42,12.559 -6.123,0 -9.524,-4.344 -9.524,-12.559 0,-8.216 3.506,-11.88 9.524,-11.88 C -4.187,-11.88 0,-8.216 0,0 m -26.114,0.157 c 0,11.775 6.019,18.839 16.694,18.839 10.676,0 16.588,-7.064 16.588,-18.996 0,-11.932 -5.912,-18.107 -16.588,-18.107 -10.675,0 -16.694,6.541 -16.694,18.264"
             style="fill:#000b5d;fill-opacity:1;fill-rule:nonzero;stroke:none"
             id="path396" />
        </g>
        <g
           id="g398"
           transform="translate(608.2,22.8773)">
          <path
             d="m 0,0 -0.157,3.454 c -1.676,-2.931 -5.652,-4.658 -10.414,-4.658 -9.629,0 -15.752,8.949 -15.752,18.63 0,10.256 5.862,18.473 17.113,18.473 8.267,0 14.653,-4.919 15.176,-11.88 h -7.327 c -0.366,3.245 -3.873,5.862 -7.849,5.862 -5.808,0 -9.681,-4.501 -9.681,-12.769 0,-5.704 2.878,-12.193 9.628,-12.193 4.762,0 8.477,3.61 8.477,7.954 h -7.691 v 5.809 H 6.018 V 0 Z"
             style="fill:#000b5d;fill-opacity:1;fill-rule:nonzero;stroke:none"
             id="path400" />
        </g>
        <path
           d="m 628.234,57.624 h 7.273 V 22.877 h -7.273 z"
           style="fill:#000b5d;fill-opacity:1;fill-rule:nonzero;stroke:none"
           id="path402" />
        <g
           id="g404"
           transform="translate(649.5296,22.8773)">
          <path
             d="m 0,0 v 34.747 h 25.537 v -6.07 H 7.064 v -7.43 H 24.071 V 15.124 H 7.064 V 6.175 H 26.373 V 0 Z"
             style="fill:#000b5d;fill-opacity:1;fill-rule:nonzero;stroke:none"
             id="path406" />
        </g>
        <g
           id="g408"
           transform="translate(708.5495,47.3677)">
          <path
             d="m 0,0 c -0.366,3.558 -2.511,5.285 -6.907,5.285 -4.082,0 -6.227,-1.464 -6.227,-4.081 0,-2.199 1.518,-3.455 5.391,-4.396 C -3.819,-4.135 0,-5.076 2.565,-6.227 5.6,-7.588 8.007,-9.733 8.007,-14.652 c 0,-7.641 -5.756,-11.042 -13.867,-11.042 -8.582,0 -14.547,3.82 -14.705,11.617 h 7.013 c 0.104,-3.558 3.087,-5.757 7.743,-5.757 4.293,0 6.752,1.833 6.752,4.919 0,2.042 -1.047,3.455 -5.391,4.396 -4.29,0.943 -7.064,1.57 -9.524,2.669 -3.715,1.675 -5.808,4.187 -5.808,8.582 0,6.227 4.238,10.676 12.716,10.676 C 1.727,11.408 6.646,6.646 6.909,0 Z"
             style="fill:#000b5d;fill-opacity:1;fill-rule:nonzero;stroke:none"
             id="path410" />
        </g>
      </g>
    </g>
  </g>
</svg>
